<svg width="133" height="85" viewBox="0 0 133 85" fill="none" xmlns="http://www.w3.org/2000/svg">
<g clip-path="url(#clip0_1_46)">
<path d="M29.4318 56.8154C30.0301 59.8486 27.3522 63.0819 24.2569 63.0636C22.201 63.0514 20.1555 63.3859 18.0996 63.3861C16.0437 63.3864 13.8957 63.0105 12.2684 61.7557C10.6411 60.5008 9.70754 58.1926 10.5232 56.3078C6.25901 63.7792 3.56883 72.0423 2.61785 80.5898C2.58189 80.9151 2.66802 81.2421 2.85958 81.5076C3.05114 81.7731 3.33451 81.9583 3.65485 82.0271C3.97519 82.096 4.30972 82.0438 4.59371 81.8805C4.8777 81.7172 5.09095 81.4545 5.1922 81.1433L10.8807 63.6564C10.0173 64.628 11.1635 66.1495 12.3893 66.5839C13.6151 67.0183 15.0957 67.0859 15.9152 68.0946C18.9891 71.8782 25.2411 72.515 29.0163 69.4289C32.7916 66.3428 33.4025 60.0959 29.4318 56.8154Z" fill="black"/>
<path d="M16.1341 22.3571C15.2939 22.3779 15.296 23.6073 16.1341 23.6304C16.9744 23.6096 16.9722 22.3802 16.1341 22.3571Z" fill="black"/>
<path d="M28.2181 22.1685C27.3779 22.1893 27.3801 23.4188 28.2181 23.4418C29.0584 23.421 29.0562 22.1916 28.2181 22.1685Z" fill="black"/>
<path d="M13.2075 16.6764C14.1663 16.7679 15.1336 16.7047 16.0723 16.489C15.1133 16.4167 14.1489 16.4797 13.2075 16.6764V16.6764Z" fill="black"/>
<path d="M24.9139 16.2049C26.267 16.4195 27.9152 16.4933 29.1427 16.2846C27.7514 15.9861 26.3155 15.959 24.9139 16.2049Z" fill="black"/>
<path d="M22.4594 28.8397C21.8356 29.4901 21.2621 30.3752 21.6867 31.2878C21.5627 30.3895 22.1058 29.6201 22.4594 28.8397Z" fill="black"/>
<path d="M27.2854 33.0114C26.9387 33.5537 26.5241 34.0496 26.0515 34.4869C24.5982 35.7798 22.8575 36.4567 20.8174 36.3341C19.8029 36.2903 18.8169 35.9413 17.8334 35.6285C18.7111 36.1756 19.6185 36.7152 20.6439 36.9268C23.0875 37.4691 25.3329 36.5117 26.6952 34.4284C26.9929 33.9317 27.226 33.3991 27.3886 32.8435C27.3541 32.8993 27.3201 32.9556 27.2854 33.0114Z" fill="black"/>
<path d="M35.0687 28.5701C35.0617 28.5218 35.0545 28.4734 35.0475 28.4251C35.0315 28.7538 35.009 29.082 34.9824 29.41C34.8941 30.4435 34.7788 31.4707 34.657 32.2882C34.1354 36.5744 33.2123 38.4724 30.2861 41.2986C28.8701 42.7124 27.4265 43.5365 25.3945 44.5137C24.489 44.9402 22.7259 45.4372 21.5447 45.3951C20.4512 45.3884 19.7744 45.1951 18.4715 44.8759C16.4588 44.2329 14.7868 43.5728 12.9263 42.1622C12.5634 41.8572 12.2145 41.5377 11.8819 41.1999C11.3668 40.6817 10.8809 40.1354 10.4265 39.5635C9.97035 38.9716 9.61482 38.3087 9.37413 37.6014C8.60618 35.158 8.1671 33.3193 8.16504 31.0396C8.16761 29.8685 8.2513 28.6843 8.7704 27.6139C8.18982 28.4945 7.82823 29.5008 7.71574 30.5491C7.33822 32.5667 7.56377 34.6329 7.97277 36.6277C8.1759 37.5357 8.42106 38.448 8.8548 39.2762C9.34284 40.111 9.92728 40.8856 10.5961 41.5843C12.3243 43.5806 14.6282 44.8387 17.0814 45.7344C20.5834 47.0048 23.0933 46.9503 26.0564 45.6446C25.7949 46.8955 25.5761 48.1556 25.4395 49.4264C25.2882 51.1503 25.2292 52.881 25.2626 54.6112C26.0467 51.8629 26.272 48.5909 26.2631 45.5524C26.8075 45.3036 27.3679 45.014 27.9535 44.6825C29.5077 43.8535 30.8598 42.6973 32.0641 41.4215C33.9314 39.5959 35.1516 37.3789 35.2916 34.7388C35.4219 32.6803 35.3472 30.6139 35.0687 28.5701Z" fill="black"/>
<path d="M37.9525 16.3881C37.9755 15.9584 38.0566 15.5314 37.9334 15.1082C37.766 14.3892 37.6803 14.2977 37.4006 13.5558C37.2029 13.0457 36.9492 12.5477 36.828 12.0124C36.9177 11.7737 37.1642 11.0706 37.1356 10.4295C37.0539 9.51244 36.8986 9.40394 37.2309 8.50362C37.346 7.90345 37.4435 7.23749 37.1592 6.67032C36.4342 5.5164 35.0911 4.97933 34.0384 4.1794C31.9924 2.50167 33.846 2.49267 29.6468 2.1106C28.834 2.00865 28.3813 2.02112 28.0331 1.81284C28.0284 1.81018 28.0261 1.80877 28.022 1.8064C27.5001 1.35921 26.8778 1.04444 26.208 0.888816C25.2971 0.724287 24.3639 0.759037 23.4468 0.641664C23.2866 0.625287 23.1277 0.597619 22.9713 0.558866C22.8172 0.535879 22.6686 0.484547 22.5331 0.407472C21.9668 0.00375749 21.2286 -0.0726976 20.558 0.0594614C19.0242 0.552911 17.5064 1.73785 16.3134 2.0697C16.2288 2.09521 16.1428 2.11578 16.0559 2.13133C16.0234 2.13364 15.9908 2.13396 15.9583 2.13226C15.9126 2.12357 15.8675 2.11197 15.8233 2.09752C15.315 1.85163 14.7541 1.73393 14.1897 1.75473C13.4231 1.74773 12.6992 2.09407 12.1315 2.59287C11.4654 3.19839 11.085 4.03999 10.7687 4.86609C10.0067 6.84147 10.1075 9.02306 10.556 11.0604C10.5743 11.1378 10.6336 11.4418 10.6605 11.5703C10.3696 11.9216 10.2303 12.1572 9.76444 12.9617C8.96723 14.2134 8.50104 15.5554 8.10753 16.9786C8.04768 17.1671 8.06299 17.3714 8.15029 17.549C8.14979 17.5615 8.15088 17.5741 8.15355 17.5864C8.15376 17.6672 8.14354 17.7476 8.12313 17.8258C7.98745 18.3281 7.88222 18.8381 7.80802 19.3531C7.76211 19.7537 7.68967 20.1878 7.8505 20.5703C8.21896 21.0764 8.84474 20.5052 9.24564 20.315C8.88202 20.4278 8.13756 20.8894 8.0168 20.4149C7.98843 19.543 8.41731 18.7315 8.68471 17.9209C8.74457 17.751 8.76613 17.5701 8.74786 17.391C8.74487 17.3488 8.73164 17.3079 8.70931 17.2719C8.92053 16.5657 9.15008 16.1836 9.47301 15.4333C9.69447 14.8045 9.98593 14.3867 10.4537 13.6766C10.6166 13.4341 10.7752 13.1884 10.9367 12.9448C10.3597 14.8954 9.89604 16.8777 9.54787 18.8818C9.12522 21.7792 8.94913 24.7069 8.68293 27.6214C9.67331 24.3066 10.2932 20.8983 10.7371 17.4713C10.8883 16.317 11.1928 14.2312 11.3535 12.3552C11.5397 12.1661 11.7618 11.9842 11.7531 11.6935C11.7496 11.0786 11.521 10.4828 11.4504 9.87254C11.3442 9.16718 11.3014 8.45378 11.3223 7.74081C11.325 7.46283 11.3573 7.18696 11.3874 6.91095C11.6895 5.32463 12.1264 4.05512 13.0303 3.26835C13.2299 3.10071 13.4609 2.97451 13.7099 2.89711C13.9589 2.81971 14.2208 2.79268 14.4804 2.81759C15.1576 2.86089 14.8621 2.83559 15.5863 3.09878C16.1802 3.25998 16.7622 2.98407 17.2947 2.74621C18.1257 2.36111 18.9192 1.9025 19.727 1.47198C20.5259 1.0853 20.5529 0.968647 21.302 1.00343C21.3169 1.00486 21.3318 1.00694 21.3466 1.0086C21.4354 1.02085 21.5233 1.03896 21.6097 1.0628C21.6439 1.07187 21.6771 1.08404 21.7103 1.09624C21.6423 1.07091 21.6011 1.03915 21.7103 1.09626C21.7208 1.10012 21.7317 1.10267 21.7421 1.10683C21.7312 1.10369 21.7205 1.10006 21.7103 1.09627L21.7183 1.10037C22.1605 1.4041 22.6746 1.58686 23.2094 1.63043C24.4072 1.79084 25.861 1.75358 26.3294 2.01469C26.5841 2.13806 26.8285 2.2815 27.0604 2.44365C27.2088 2.591 27.3753 2.71889 27.556 2.82422C28.0734 3.0987 28.678 3.05129 29.2426 3.13557C30.3544 3.26688 30.7314 3.27323 31.7893 3.5005C31.8346 3.51297 31.879 3.52866 31.9232 3.54469C31.9364 3.55139 31.9494 3.55841 31.9622 3.56576C32.0424 3.64642 32.0326 3.68715 32.2754 3.97616C33.0034 4.85356 33.9948 5.44694 34.926 6.08309C35.4239 6.40775 35.527 6.50562 36.063 7.06022C36.0763 7.07994 36.0856 7.09276 36.0933 7.10271C36.118 7.14113 36.1404 7.18104 36.1602 7.22221C36.1677 7.24671 36.1769 7.2785 36.1842 7.31109C36.1824 7.91666 36.201 7.95811 36.1063 8.31429C35.8256 8.94461 35.9127 9.62771 35.9845 10.2909C35.9909 10.392 35.9886 10.4934 35.9777 10.5942C35.9395 10.8502 35.8861 11.1038 35.8179 11.3535C35.705 11.658 35.6172 11.9761 35.7079 12.2994C36.0053 13.3141 36.7399 14.4159 37.0046 15.5244C37.014 15.5642 37.0233 15.6041 37.0317 15.6441C37.0368 15.735 37.0284 15.8261 37.0294 15.917C37.0356 16.2185 37.0589 16.5193 37.0992 16.8181C37.1725 17.4512 37.2916 18.0775 37.4142 18.7025C37.4579 19.0515 37.4512 19.405 37.3943 19.7521C37.188 20.1683 36.6677 20.2608 36.266 20.4036C36.0096 20.4838 35.7543 20.5678 35.4982 20.6487C35.6148 20.6333 35.7314 20.6185 35.8481 20.6043C36.5861 20.5013 37.7076 20.5256 37.8641 19.5962C37.9741 19.1745 38.0116 18.7373 37.9752 18.3031C37.9415 17.6655 37.9302 17.0263 37.9525 16.3881Z" fill="black"/>
<path d="M34.6627 12.6383C34.7775 12.6343 34.8922 12.63 35.0067 12.6267C35.3766 12.6175 35.016 12.6019 34.839 12.5741C34.7773 12.5657 34.7155 12.5576 34.6536 12.5497C34.6405 12.4221 34.6277 12.2944 34.6144 12.1669C34.599 12.0314 34.5833 11.896 34.5672 11.7607C34.5385 12.0161 34.5145 12.272 34.4884 12.5276C34.1691 12.4899 33.8525 12.4322 33.5405 12.3549C33.2979 12.2747 33.0625 12.1739 32.8168 12.1028C32.2969 11.9327 31.7421 11.9176 31.2239 11.7403C30.3671 11.4758 29.8208 11.1334 28.8699 10.8355C26.8434 10.2713 24.7154 9.88143 22.6091 10.1306C21.8741 10.2519 21.1779 10.5378 20.4463 10.6781C19.7539 10.8587 18.5282 10.7463 17.4877 11.0345C15.3923 11.6396 14.4268 11.9873 12.2469 11.3226C13.8387 12.0748 14.9367 12.2226 16.67 11.9069C17.5517 11.7597 17.9669 11.6388 18.898 11.6703C19.6185 11.7317 20.344 11.6981 21.0557 11.5704C21.6169 11.4785 22.1625 11.3076 22.7238 11.218C23.5849 11.1605 24.4488 11.1582 25.3102 11.2109C26.7088 11.3001 27.505 11.4385 28.955 11.7168C30.0626 12.0272 31.1585 12.4276 32.325 12.4151C32.6951 12.439 33.0644 12.5431 33.5281 12.6232C33.8435 12.6501 34.1603 12.6568 34.4766 12.6433C34.4122 13.2856 34.3532 13.9284 34.3051 14.5721C34.0737 17.4801 34.1587 20.4006 34.3971 23.3051C34.5187 25.152 34.6488 26.9989 34.8498 28.8391C35.0805 26.5467 35.305 24.2469 35.292 21.9406C35.2579 18.8321 34.981 15.7296 34.6627 12.6383Z" fill="black"/>
<path d="M19.8437 41.1101C21.2756 41.0712 22.6926 40.8084 24.043 40.3312C22.6111 40.3701 21.1941 40.6329 19.8437 41.1101V41.1101Z" fill="black"/>
<path d="M27.4168 54.7336C26.9621 54.5081 26.47 54.3675 25.9646 54.3188C26.1512 54.3762 26.4079 54.4843 26.5415 54.5383C27.9037 55.1309 28.5224 56.371 27.6795 57.526C26.6791 58.7685 23.9548 59.2155 22.5615 59.3558C21.0251 59.4547 19.4837 59.45 17.9479 59.3418C16.5027 59.2451 15.7191 59.2034 14.4256 58.9005C13.5635 58.6737 13.1327 58.5654 12.4646 58.2024C12.2621 58.1103 12.0866 57.9679 11.9547 57.7889C11.8228 57.6099 11.739 57.4001 11.7112 57.1796C11.6899 56.9902 11.7086 56.7984 11.7663 56.6166C11.8239 56.4349 11.9191 56.2673 12.0457 56.1246C12.2545 56.161 12.4624 56.1994 12.6688 56.2313C12.4917 56.1609 12.3191 56.0943 12.1495 56.0327C12.7725 55.6777 13.4979 55.8058 14.1829 55.8826C14.181 55.9058 14.1794 55.929 14.1776 55.9522C14.185 55.9296 14.1924 55.9071 14.1999 55.8845C14.2697 55.8922 14.3391 55.8996 14.4079 55.9056C14.3431 55.8874 14.2775 55.8684 14.2115 55.8492C14.2235 55.813 14.2354 55.7768 14.2473 55.7406C15.3009 52.6505 15.7969 49.3983 15.7122 46.1351C15.1446 48.6981 14.5514 51.2637 14.3403 53.8863C14.2817 54.5375 14.2378 55.1899 14.186 55.8417C13.4298 55.6207 12.6048 55.3646 11.8685 55.7506C11.8101 55.7904 11.7545 55.8343 11.7021 55.8819C10.7284 55.582 9.8276 55.5205 8.76291 56.0661C7.42886 56.674 6.47646 57.8235 5.77998 59.0812C4.82158 60.7384 4.18077 62.5519 3.69046 64.3963C2.87532 67.4507 2.19996 70.5442 1.5813 73.6438C1.3219 75.1472 1.14359 77.1043 0.969523 78.2034C0.699974 80.1765 0.342923 82.1357 0.0542306 84.1058C0.0356347 84.2374 0.0180073 84.3692 -7.62939e-06 84.5009C0.060961 84.305 0.123912 84.1097 0.186942 83.9145C0.963104 81.6367 1.68612 79.3383 2.18257 76.9812C2.79043 73.7838 3.4561 70.5981 4.1796 67.4242C4.82842 64.5991 5.57606 61.8478 6.69772 59.5692C7.23312 58.5018 7.58139 57.8246 8.39174 57.121C8.9329 56.651 9.55335 56.2358 10.2595 56.07C10.6832 55.9858 11.1185 55.9779 11.545 56.0466C11.2808 56.379 11.1366 56.7908 11.1358 57.2153C11.1349 57.6397 11.2774 58.0521 11.5403 58.3856C12.5126 59.4448 14.34 59.9303 15.7206 60.1938C17.3685 60.47 19.045 60.5145 20.7127 60.5303C22.1628 60.5446 23.6225 60.4025 25.0044 59.9442C26.0733 59.6085 27.1536 59.1402 27.9591 58.3423C29.0765 57.195 28.8592 55.484 27.4168 54.7336Z" fill="black"/>
<path d="M32.4417 56.949C32.0978 56.4721 31.7214 55.9654 31.1774 55.7077C30.3162 55.3226 29.3596 55.2025 28.4297 55.3628C29.3438 55.3628 30.2376 55.6322 30.9991 56.1371C31.3423 56.4043 31.5573 56.8021 31.7679 57.1747C32.7981 58.9996 32.1633 62.2302 31.9464 64.5681C31.6915 66.9598 31.3714 69.3467 31.2253 71.7484C31.0708 74.5437 31.0822 77.345 31.0524 80.1435C31.0517 80.3037 31.0511 80.4639 31.0496 80.6241C31.068 80.5338 31.087 80.4437 31.1056 80.3535C31.7433 77.3194 32.1172 74.2402 32.4788 71.1636C32.7491 68.9364 32.9587 66.7025 33.2252 64.4749C33.456 62.1629 33.8003 58.9559 32.4417 56.949Z" fill="black"/>
<path d="M11.0806 71.119C9.10072 75.3435 7.53703 79.802 7.01653 84.4572C8.11348 81.3409 9.43209 78.295 10.2369 75.0839C10.6013 73.7021 10.8883 72.3019 11.1937 70.9064C11.2365 70.7473 11.1083 71.0724 11.0806 71.119Z" fill="black"/>
<path d="M26.2429 70.8361C25.4292 73.0702 24.8403 75.3796 24.4849 77.7303C24.1537 80.1374 24.1098 82.5745 24.1906 85C25.0398 81.0209 25.6677 77.5634 26.0275 73.7131C26.128 72.7161 26.1915 71.7155 26.3066 70.72C26.333 70.5644 26.2682 70.7852 26.2429 70.8361Z" fill="black"/>
<path d="M25.2866 66.6261C24.7961 67.6265 23.9683 68.5169 23.1468 68.8192C22.3662 69.1003 21.7107 69.0309 21.5429 68.8437C21.6183 67.4323 21.8663 65.6045 21.9079 64.0477C21.5756 65.3598 21.2483 66.6737 20.9588 67.996C20.8998 68.3706 20.736 68.7784 20.8794 69.1489C21.2457 69.8684 22.234 69.8768 22.9189 69.6852C24.9137 69.1288 25.6242 66.9114 26.0703 65.1109C26.0903 65.0269 26.1087 64.9425 26.1264 64.8581C25.8722 65.4591 25.5933 66.05 25.2866 66.6261Z" fill="black"/>
</g>
<path d="M65.152 45.096C64.1253 45.272 62.996 45.36 61.764 45.36C60.7373 45.36 59.564 45.2427 58.244 45.008L58.288 44.656C58.288 44.48 58.2147 44.3627 58.068 44.304C57.9213 44.216 57.7747 44.172 57.628 44.172C57.4813 44.1427 57.3933 44.128 57.364 44.128L57.408 43.776C57.408 43.3067 57.2613 42.984 56.968 42.808C56.6747 42.6027 56.2933 42.456 55.824 42.368C55.296 42.5147 54.8853 42.7347 54.592 43.028C54.2987 43.3213 54.152 43.644 54.152 43.996C54.152 44.5533 54.4453 44.9493 55.032 45.184L54.944 45.14C58.2293 45.668 60.7667 46.5187 62.556 47.692C64.3453 48.8653 65.24 50.728 65.24 53.28C65.24 55.9787 64.36 57.944 62.6 59.176C60.84 60.408 58.5227 61.024 55.648 61.024C53.5947 61.024 51.7613 60.628 50.148 59.836C48.5347 59.0733 47.2733 58.032 46.364 56.712C45.484 55.3627 45.044 53.896 45.044 52.312V51.696C45.9533 51.5787 46.9507 51.52 48.036 51.52L50.324 51.564C50.7933 51.5933 51.4827 51.608 52.392 51.608C52.392 51.8427 52.4653 52.136 52.612 52.488H53.272C53.272 53.5147 53.932 54.028 55.252 54.028C56.4547 54.028 57.056 53.4413 57.056 52.268C57.056 51.828 56.8213 51.52 56.352 51.344C55.912 51.1387 55.1933 50.9333 54.196 50.728C52.9347 50.4933 51.9667 50.2293 51.292 49.936H51.336C49.5467 49.32 48.124 48.3227 47.068 46.944C46.012 45.536 45.484 44.084 45.484 42.588C45.484 41.2093 45.924 39.904 46.804 38.672C47.7133 37.44 48.9013 36.604 50.368 36.164C51.3653 35.8707 52.8907 35.724 54.944 35.724C56.9093 35.724 58.5227 35.8707 59.784 36.164C61.0453 36.4573 62.072 37.1027 62.864 38.1C64.624 39.5373 65.504 41.7227 65.504 44.656L65.152 45.096ZM60.356 36.692C58.772 36.34 56.968 36.164 54.944 36.164C48.9307 36.164 45.924 38.3053 45.924 42.588C45.924 43.908 46.32 45.1253 47.112 46.24C47.904 47.3253 49.0627 48.132 50.588 48.66C51.292 48.9827 52.4067 49.2907 53.932 49.584C55.1933 49.8773 56.1027 50.1707 56.66 50.464C57.2173 50.7573 57.496 51.256 57.496 51.96C57.496 52.84 57.3053 53.4853 56.924 53.896C56.5427 54.2773 55.9853 54.468 55.252 54.468C54.4307 54.468 53.6973 54.248 53.052 53.808C52.4067 53.368 52.0547 52.7813 51.996 52.048L46.936 52.004C46.2613 52.004 45.7773 52.0333 45.484 52.092V52.312C45.484 54.5707 46.3347 56.3747 48.036 57.724C49.7373 59.044 51.9813 59.704 54.768 59.704C57.4373 59.704 59.6227 59.1613 61.324 58.076C63.0253 56.9613 63.876 55.0693 63.876 52.4C63.876 50.8747 63.524 49.6573 62.82 48.748C62.116 47.8387 61.1333 47.164 59.872 46.724C58.64 46.284 56.9827 45.9027 54.9 45.58C54.2253 45.3453 53.712 45.008 53.36 44.568C53.008 44.128 52.832 43.6587 52.832 43.16C52.832 42.6613 53.0227 42.192 53.404 41.752C53.8147 41.2827 54.372 41.048 55.076 41.048C55.7507 41.048 56.396 41.2973 57.012 41.796C57.628 42.2947 57.936 42.8373 57.936 43.424C57.936 43.6 57.9213 43.7173 57.892 43.776C58.8013 43.952 59.7987 44.04 60.884 44.04C62.0867 44.04 63.1867 43.952 64.184 43.776C64.184 42.104 63.876 40.652 63.26 39.42C62.644 38.1587 61.676 37.2493 60.356 36.692ZM86.7646 60.012C85.6499 60.2173 84.1979 60.32 82.4086 60.32C81.1766 60.32 80.2819 60.3347 79.7246 60.364L79.5926 59.44C79.2406 59.44 78.9913 59.4547 78.8446 59.484C78.6393 57.9293 78.5073 55.6853 78.4486 52.752C78.3899 50.6107 78.3166 49.0267 78.2286 48C77.5833 47.9413 77.1873 47.912 77.0406 47.912C76.1899 47.912 75.4126 47.9853 74.7086 48.132C74.6793 48.572 74.6646 49.2907 74.6646 50.288L74.7086 52.928C74.7379 53.5147 74.7526 54.38 74.7526 55.524C74.7526 57.372 74.6499 58.8093 74.4446 59.836C73.9166 60.1587 73.1979 60.32 72.2886 60.32C71.9366 60.32 71.4086 60.2907 70.7046 60.232C70.0006 60.1733 69.5313 60.144 69.2966 60.144C68.7686 60.144 68.2259 60.2907 67.6686 60.584L67.5806 59.352C67.3166 59.4107 67.0526 59.528 66.7886 59.704C66.6126 57.6213 66.4513 53.808 66.3046 48.264C66.1579 42.6907 66.0846 37.6013 66.0846 32.996C66.0846 30.5027 66.0993 28.7867 66.1286 27.848L66.7886 27.804C67.1993 27.892 67.5953 27.936 67.9766 27.936C68.2699 27.936 68.7686 27.9067 69.4726 27.848C70.2939 27.7893 70.9393 27.76 71.4086 27.76C71.7606 27.76 72.0539 27.8333 72.2886 27.98C72.5233 28.0973 72.6846 28.3467 72.7726 28.728C72.9486 28.7573 73.0953 28.7867 73.2126 28.816C73.3593 28.8453 73.4766 28.8747 73.5646 28.904C73.6819 29.9307 73.7699 31.4267 73.8286 33.392C73.9459 36.1787 74.1366 38.276 74.4006 39.684H74.8846C75.7939 39.684 76.6153 39.6253 77.3486 39.508H77.6566C77.8326 37.396 77.9206 35.3133 77.9206 33.26C77.9206 30.972 77.8766 29.2413 77.7886 28.068C79.1966 27.6573 80.8833 27.452 82.8486 27.452H83.4646C83.9339 27.452 84.3446 27.4813 84.6966 27.54V28.376C85.0486 28.376 85.3419 28.3907 85.5766 28.42L86.7646 60.012ZM84.2566 27.936C83.9339 27.9067 83.4646 27.892 82.8486 27.892C80.9419 27.892 79.4019 28.068 78.2286 28.42C78.3166 30.18 78.3606 31.808 78.3606 33.304C78.3606 35.4453 78.2579 37.6453 78.0526 39.904H78.0086C76.9819 40.0507 75.9699 40.124 74.9726 40.124C74.2686 40.124 73.6966 40.0653 73.2566 39.948H73.2126C72.9486 38.5693 72.7579 36.4867 72.6406 33.7C72.5819 31.6467 72.4646 29.872 72.2886 28.376C71.9073 28.2587 71.3793 28.2 70.7046 28.2L69.5166 28.244L68.0646 28.332L67.6686 28.376C67.3459 28.376 67.0233 28.332 66.7006 28.244L66.5686 28.288C66.5393 29.2267 66.5246 30.796 66.5246 32.996C66.5246 37.66 66.5833 42.632 66.7006 47.912C66.8473 53.192 67.0086 56.8733 67.1846 58.956C67.3899 58.8387 67.7126 58.78 68.1526 58.78C68.5046 58.78 69.0326 58.8093 69.7366 58.868C70.3526 58.956 70.9393 59 71.4966 59C71.9073 59 72.2299 58.9853 72.4646 58.956C72.7286 58.9267 72.9633 58.8387 73.1686 58.692C73.3153 57.6653 73.3886 56.404 73.3886 54.908C73.3886 53.764 73.3739 52.8987 73.3446 52.312L73.3006 49.76C73.3006 48.8213 73.3446 47.868 73.4326 46.9C74.2246 46.6947 75.1193 46.592 76.1166 46.592C76.7913 46.592 77.5979 46.6653 78.5366 46.812L78.5806 46.856C78.7273 48.0587 78.8299 49.9653 78.8886 52.576C78.8886 55.2747 79.0059 57.416 79.2406 59H79.2846C79.5193 58.9707 79.9446 58.956 80.5606 58.956H82.1446C83.4939 58.956 84.5939 58.8827 85.4446 58.736L84.2566 27.936ZM94.7296 27.848H95.6096L95.6536 30.224C95.7123 31.9253 95.7416 33.2013 95.7416 34.052C95.419 34.5507 94.715 34.8 93.6296 34.8C93.3656 34.8 92.7936 34.7707 91.9136 34.712H91.9576L90.4616 34.668C89.875 34.668 89.3616 34.6827 88.9216 34.712V33.788L88.0416 33.832C88.0416 33.2747 88.0123 32.4387 87.9536 31.324C87.895 29.9747 87.8656 28.7867 87.8656 27.76V26.836L94.7296 26.968V27.848ZM88.3056 27.98C88.3056 28.8893 88.335 29.96 88.3936 31.192C88.4523 32.1893 88.4816 32.908 88.4816 33.348H89.2296C89.6696 33.348 90.3003 33.3773 91.1216 33.436L92.7056 33.48C93.6736 33.48 94.2456 33.3333 94.4216 33.04C94.4216 32.1013 94.3923 30.8107 94.3336 29.168C94.3043 28.64 94.2896 28.0533 94.2896 27.408L88.3056 27.276V27.98ZM94.9056 37.396L95.7856 37.528C95.7856 39.2 95.7563 41.7373 95.6976 45.14C95.6096 47.692 95.5656 50.3027 95.5656 52.972C95.5656 55.5827 95.6243 57.8413 95.7416 59.748C95.507 59.9827 95.1843 60.144 94.7736 60.232C94.363 60.32 93.835 60.364 93.1896 60.364C92.339 60.364 91.6936 60.3493 91.2536 60.32H91.2976L90.2416 60.276C89.5963 60.276 89.0536 60.3493 88.6136 60.496C88.6136 60.2907 88.643 59.924 88.7016 59.396C88.2616 59.4547 87.939 59.528 87.7336 59.616C87.8803 57.6507 87.9536 55.6267 87.9536 53.544C87.9536 52.3707 87.9243 50.6107 87.8656 48.264C87.807 45.9173 87.7776 44.128 87.7776 42.896C87.7776 40.8427 87.8803 38.6867 88.0856 36.428C88.291 36.428 88.4376 36.4133 88.5256 36.384L89.2296 36.296C89.4643 36.296 89.9043 36.3253 90.5496 36.384C91.2243 36.4133 91.943 36.428 92.7056 36.428H93.7176L94.9056 36.648V37.396ZM92.7056 36.868C91.7376 36.868 90.8136 36.8387 89.9336 36.78L88.6576 36.736H88.4816V36.78C88.3056 38.3347 88.2176 40.344 88.2176 42.808C88.2176 43.9227 88.247 45.6827 88.3056 48.088C88.3643 50.4933 88.3936 52.3267 88.3936 53.588C88.3936 55.5827 88.335 57.3867 88.2176 59C88.2763 58.9707 88.511 58.956 88.9216 58.956C89.5376 58.956 90.0363 58.9707 90.4176 59L92.3976 59.044C93.043 59.044 93.5123 59.0293 93.8056 59C94.1283 58.9707 94.3336 58.8827 94.4216 58.736C94.3043 56.6533 94.2456 54.292 94.2456 51.652C94.2456 48.7773 94.2896 45.932 94.3776 43.116C94.4363 40.3587 94.4656 38.32 94.4656 37V36.868H92.7056ZM103.883 37.44C104.264 37.4987 104.499 37.5573 104.587 37.616C106.259 37.088 107.858 36.824 109.383 36.824C110.116 36.824 110.747 36.868 111.275 36.956C111.803 37.0147 112.067 37.0733 112.067 37.132V37.792C112.654 37.88 112.947 37.9533 112.947 38.012L112.903 41.752C112.874 42.2507 112.859 42.896 112.859 43.688C112.859 44.1573 112.903 45.052 112.991 46.372L111.979 46.02L112.023 46.064L111.495 45.888L111.539 45.932C110.366 45.6387 109.574 45.4627 109.163 45.404C108.782 45.3453 108.444 45.316 108.151 45.316C107.858 45.316 107.652 45.316 107.535 45.316C106.538 45.316 105.79 45.5213 105.291 45.932C104.822 46.3133 104.587 47.0173 104.587 48.044C104.704 51.652 104.763 55.4947 104.763 59.572V60.1C103.824 60.364 102.959 60.496 102.167 60.496C101.698 60.496 101.346 60.4813 101.111 60.452L99.791 60.408H99.263C98.823 60.408 98.3977 60.4373 97.987 60.496V59.528L97.107 59.616L97.063 51.3C97.0043 47.604 96.975 44.8027 96.975 42.896C96.975 41.3413 97.0043 39.244 97.063 36.604C97.767 36.692 98.427 36.736 99.043 36.736C99.2777 36.736 99.659 36.7067 100.187 36.648C100.744 36.56 101.492 36.516 102.431 36.516C103.399 36.516 103.883 36.692 103.883 37.044V37.44ZM103.443 37.044C103.443 36.9853 103.267 36.956 102.915 36.956C101.947 36.956 101.126 37 100.451 37.088C99.7763 37.1467 99.307 37.176 99.043 37.176H98.515C98.1337 37.176 97.7963 37.1467 97.503 37.088C97.4443 37.9973 97.415 39.332 97.415 41.092V43.776C97.415 45.5653 97.4443 48.1613 97.503 51.564L97.547 59.132C97.899 59.1027 98.383 59.088 98.999 59.088L101.375 59.132C102.079 59.132 102.768 59.044 103.443 58.868V58.692C103.443 57.1373 103.414 55.128 103.355 52.664C103.296 50.2 103.267 48.2787 103.267 46.9C103.267 45.8147 103.546 45.0667 104.103 44.656C104.69 44.216 105.54 43.996 106.655 43.996C106.831 43.996 107.08 43.996 107.403 43.996C107.755 43.9667 108.151 43.996 108.591 44.084C109.06 44.1427 109.632 44.26 110.307 44.436C110.454 44.4947 110.6 44.5533 110.747 44.612C110.923 44.6413 111.084 44.6853 111.231 44.744L111.627 44.876C111.598 44.5533 111.583 44.084 111.583 43.468V41.84L111.627 37.132C111.627 37.0733 111.319 37.044 110.703 37.044C109.588 37.044 108.268 37.2053 106.743 37.528C105.247 37.8213 104.162 38.1587 103.487 38.54C103.487 38.3347 103.472 38.188 103.443 38.1C103.443 38.012 103.443 37.9387 103.443 37.88V37.044ZM120.258 50.112C120.258 50.8747 120.302 51.5053 120.39 52.004C120.508 52.4733 120.728 52.9867 121.05 53.544V53.632C121.432 53.8373 121.901 53.94 122.458 53.94C123.074 53.94 123.588 53.6613 123.998 53.104C124.409 52.5173 124.614 51.652 124.614 50.508V50.068C125.26 50.1267 125.744 50.156 126.066 50.156L127.606 50.112C127.929 50.0827 128.428 50.068 129.102 50.068C129.601 50.068 130.261 50.1413 131.082 50.288L131.038 51.036L131.962 51.168C131.962 54.336 131.61 56.6093 130.906 57.988C130.232 59.3667 129.352 60.188 128.266 60.452C127.21 60.7453 125.582 60.892 123.382 60.892C121.622 60.892 120.214 60.76 119.158 60.496C118.132 60.2613 117.252 59.704 116.518 58.824C115.169 57.7093 114.172 56.1107 113.526 54.028C112.881 51.9453 112.558 49.6867 112.558 47.252C112.558 44.4067 112.896 42.0747 113.57 40.256C114.186 38.848 115.257 37.7773 116.782 37.044C118.308 36.2813 120.009 35.9 121.886 35.9C124.145 35.9 126.037 36.384 127.562 37.352C129.117 38.32 130.261 39.6253 130.994 41.268C131.757 42.8813 132.138 44.656 132.138 46.592C132.138 46.768 132.094 47.516 132.006 48.836C131.449 48.9827 129.968 49.1147 127.562 49.232C125.186 49.3493 123.074 49.408 121.226 49.408C120.786 49.408 120.464 49.3933 120.258 49.364V50.112ZM118.938 47.956C119.29 48.044 120.302 48.088 121.974 48.088C123.588 48.088 125.333 48.044 127.21 47.956C129.088 47.8387 130.261 47.7213 130.73 47.604C130.789 46.724 130.818 46.0933 130.818 45.712C130.818 42.7787 130.158 40.4907 128.838 38.848C127.548 37.176 125.23 36.34 121.886 36.34C120.126 36.34 118.498 36.7067 117.002 37.44C115.536 38.144 114.524 39.1267 113.966 40.388C113.292 42.2067 112.954 44.6413 112.954 47.692C112.954 50.7427 113.468 53.3827 114.494 55.612C115.521 57.8413 117.12 59.1173 119.29 59.44L121.226 59.484C122.224 59.5427 123.001 59.572 123.558 59.572C124.937 59.572 126.11 59.4253 127.078 59.132C128.076 58.8387 128.853 58.296 129.41 57.504C129.792 57.1813 130.056 56.5067 130.202 55.48C130.349 54.424 130.496 52.8107 130.642 50.64C130.202 50.552 129.63 50.508 128.926 50.508L127.21 50.552C126.858 50.5813 126.374 50.596 125.758 50.596C125.406 50.596 125.186 50.5813 125.098 50.552V50.904C125.098 52.048 124.834 52.9133 124.306 53.5C123.808 54.0867 123.192 54.38 122.458 54.38C120.2 54.38 119.026 52.5027 118.938 48.748V47.956ZM125.978 44.48C125.978 44.568 125.876 44.612 125.67 44.612C125.524 44.612 125.23 44.5973 124.79 44.568C124.35 44.5387 123.822 44.524 123.206 44.524L120.346 44.568C119.789 44.568 119.422 44.5387 119.246 44.48C119.07 44.4213 118.982 44.2893 118.982 44.084C118.982 41.8253 120.229 40.696 122.722 40.696C123.28 40.696 123.793 40.8427 124.262 41.136C124.79 41.4 125.201 41.796 125.494 42.324C125.817 42.852 125.978 43.4093 125.978 43.996V44.48ZM124.922 42.368C124.541 42.1333 124.101 42.016 123.602 42.016C122.576 42.016 121.828 42.192 121.358 42.544C120.918 42.896 120.61 43.424 120.434 44.128L121.27 44.084H123.206L125.098 44.128L125.538 44.172V43.996C125.538 43.3213 125.348 42.7933 124.966 42.412L124.922 42.368Z" fill="black"/>
<defs>
<clipPath id="clip0_1_46">
<rect width="38" height="85" fill="white"/>
</clipPath>
</defs>
</svg>
